<svg version="1.1" id="Layer_1" xmlns="http://www.w3.org/2000/svg" x="0" y="0" viewBox="0 0 291 45" style="enable-background:new 0 0 291 45" xml:space="preserve"><style>.st0{fill:#fff}</style><g id="XMLID_12_"><g id="XMLID_2_"><path id="XMLID_3_" class="st0" d="M23.2 7v29.9h-3.7v-3.4c-1.7 2.4-4.5 3.6-7.6 3.6-6.2 0-10.8-4.4-10.8-10.9s4.5-10.9 10.8-10.9c3 0 5.7 1.1 7.4 3.4V7h3.9zm-3.9 19.2c0-4.5-3.1-7.5-7.2-7.5s-7.2 2.9-7.2 7.5c0 4.5 3.1 7.5 7.2 7.5s7.2-3 7.2-7.5z"/><path id="XMLID_6_" class="st0" d="M47.7 27.5H30.4c.5 3.7 3.5 6.2 7.7 6.2 2.5 0 4.6-.8 6.2-2.6l2.1 2.5c-1.9 2.3-4.9 3.5-8.4 3.5-6.9 0-11.5-4.5-11.5-10.9 0-6.3 4.5-10.9 10.7-10.9s10.5 4.4 10.5 11c.1.3.1.8 0 1.2zm-17.3-2.8h13.7c-.4-3.6-3.1-6.1-6.8-6.1s-6.5 2.5-6.9 6.1z"/><path id="XMLID_9_" class="st0" d="m48.9 34.6 1.6-3.1c1.8 1.3 4.7 2.2 7.5 2.2 3.6 0 5.1-1.1 5.1-2.9 0-4.8-13.5-.6-13.5-9.1 0-3.8 3.4-6.4 8.9-6.4 2.8 0 5.9.7 7.8 1.9l-1.6 3.1c-1.9-1.2-4.1-1.7-6.2-1.7-3.4 0-5 1.2-5 2.9 0 5 13.5.9 13.5 9.2 0 3.9-3.5 6.3-9.2 6.3-3.7.1-7.2-1-8.9-2.4z"/><path id="XMLID_11_" class="st0" d="M69.9 15.5h3.9v21.3h-3.9V15.5z"/><path id="XMLID_25_" class="st0" d="m71.9 7 1.9 5.9h-3.9l2-5.9z"/><path id="XMLID_14_" class="st0" d="M99.3 15.5v18.4c0 7.5-3.8 10.9-11.1 10.9-3.9 0-7.8-1.1-10.2-3.2l1.9-3c2 1.7 5.1 2.8 8.2 2.8 5 0 7.3-2.3 7.3-7.2v-1.7c-1.9 2.2-4.6 3.3-7.7 3.3-6.1.2-10.7-4-10.7-10.2s4.7-10.3 10.8-10.3c3.2 0 6.1 1.2 7.9 3.5v-3.3h3.6zm-3.7 10.1c0-4.1-3.1-6.9-7.3-6.9-4.3 0-7.4 2.8-7.4 6.9s3.1 7 7.4 7c4.2 0 7.3-2.9 7.3-7z"/><path id="XMLID_17_" class="st0" d="M124.6 24.6v12.3h-3.9V25c0-4.2-2.1-6.2-5.8-6.2-4.1 0-6.8 2.5-6.8 7.1v11h-3.9V15.5h3.7v3.2c1.6-2.2 4.3-3.4 7.7-3.4 5.4 0 9 3 9 9.3z"/><path id="XMLID_19_" class="st0" d="M166.2 24.4v12.5h-7.6V25.6c0-3.1-1.3-4.5-3.3-4.5-2.2 0-3.8 1.5-3.8 4.9v10.8h-7.6V25.6c0-3.1-1.2-4.5-3.3-4.5-2.3 0-3.9 1.5-3.9 4.9v10.8H129V15h7.3v2.3c1.6-1.8 3.9-2.7 6.5-2.7 3 0 5.5 1.1 7 3.4 1.7-2.2 4.4-3.4 7.6-3.4 5.1.1 8.8 3 8.8 9.8z"/><path id="XMLID_21_" class="st0" d="M189.9 24.7v12.1h-7.1V34c-1.1 2.1-3.3 3.2-6.4 3.2-5.2 0-8.1-2.9-8.1-6.7 0-4 2.9-6.5 9.7-6.5h4.3c-.1-2.2-1.6-3.5-4.6-3.5-2.1 0-4.4.7-5.9 1.9l-2.6-5.2c2.5-1.6 6.2-2.5 9.6-2.5 7.1 0 11.1 3.1 11.1 10zm-7.6 5.1v-1.9H179c-2.5 0-3.3.9-3.3 2.2 0 1.3 1 2.2 2.9 2.2 1.6.1 3.1-.7 3.7-2.5z"/><path id="XMLID_24_" class="st0" d="m186.7 43.9 1.9-5.4c.6.4 1.5.6 2.4.6 1.3 0 2.3-.9 2.3-2.9V15h7.6v21.2c0 5.3-3.3 8.7-8.9 8.7-2 .1-4-.3-5.3-1z"/><path id="XMLID_27_" class="st0" d="M226.4 27.9h-15.9c.6 2.2 2.5 3.5 5.4 3.5 2.1 0 3.5-.6 5-1.9l4 4.2c-2.1 2.3-5.2 3.5-9.3 3.5-7.8 0-12.8-4.8-12.8-11.3 0-6.6 5.1-11.2 12-11.2 6.4 0 11.7 4.1 11.7 11.3 0 .5 0 1.3-.1 1.9zm-15.9-4.1h8.9c-.4-2.3-2.1-3.7-4.5-3.7s-4 1.5-4.4 3.7z"/><path id="XMLID_30_" class="st0" d="m227 35 2.3-5.2c2 1.2 4.9 2 7.6 2 2.6 0 3.4-.6 3.4-1.5 0-2.9-12.9.4-12.9-8.3 0-4.1 3.8-7.2 10.6-7.2 3.1 0 6.4.6 8.6 1.9l-2.3 5.2c-2.2-1.2-4.3-1.6-6.3-1.6-2.6 0-3.5.7-3.5 1.5 0 3 12.8-.2 12.8 8.4 0 4-3.7 7.2-10.8 7.2-3.5-.2-7.3-1.1-9.5-2.4z"/><path id="XMLID_32_" class="st0" d="M264.6 36c-1.3.8-3.3 1.2-5.3 1.2-5.6 0-8.9-2.7-8.9-8.3v-7.3h-3.2v-5.7h3.2v-5.7h7.6v5.7h5v5.7h-5v7.2c0 1.6.9 2.5 2.3 2.5.8 0 1.7-.2 2.3-.7l2 5.4z"/><path id="XMLID_34_" class="st0" d="m289.3 15-9.4 22.7c-2.3 5.6-5.5 7.3-9.8 7.3-2.3 0-4.9-.8-6.3-2l2.7-5.4c.9.8 2.2 1.3 3.4 1.3 1.5 0 2.3-.6 3-1.9l-9.4-22h7.8l5.4 13.3 5.4-13.3h7.2z"/></g><g id="XMLID_1_"><path id="XMLID_37_" class="st0" d="m194.8 8.3 2.2 2.6c.1.1.3.1.3 0l2.1-2.5c0-.1.1-.1 0-.2l-2.1-7.1c-.1-.2-.4-.2-.4 0l-2.2 7c.1.1.1.1.1.2z"/><path id="XMLID_38_" class="st0" d="m193.3 12.3 1.4-3.9c0-.1 0-.2-.1-.3l-7.4-4.6c-.2-.1-.4.1-.3.3l6 8.5c.1.2.4.2.4 0z"/><path id="XMLID_39_" class="st0" d="m207.1 3.5-7.4 4.6c-.1.1-.1.2-.1.3l1.3 3.9c.1.2.3.2.4.1l6.1-8.5c.1-.2-.1-.5-.3-.4z"/></g></g></svg>