<svg version="1.1" id="Layer_1" xmlns="http://www.w3.org/2000/svg" x="0" y="0" viewBox="0 0 292.1 45" style="enable-background:new 0 0 292.1 45" xml:space="preserve"><style>.st0{fill:#555659}.st1{fill:#d92d2d}</style><g id="XMLID_12_"><g id="XMLID_2_"><path id="XMLID_3_" class="st0" d="M24.9 6.7v30h-3.7v-3.4c-1.7 2.4-4.5 3.6-7.6 3.6-6.3 0-10.8-4.4-10.8-10.9s4.6-10.9 10.8-10.9c3 0 5.7 1.1 7.5 3.4V6.7h3.8zM21.1 26c0-4.6-3.1-7.5-7.2-7.5S6.7 21.4 6.7 26s3.1 7.6 7.2 7.6c4.1-.1 7.2-3.1 7.2-7.6z"/><path id="XMLID_6_" class="st0" d="M49.6 27.3H32.2c.5 3.8 3.5 6.3 7.8 6.3 2.5 0 4.6-.8 6.2-2.6l2.1 2.5c-1.9 2.3-4.9 3.5-8.4 3.5-6.9 0-11.5-4.6-11.5-10.9S33 15.2 39.1 15.2s10.6 4.3 10.6 10.9c0 .3-.1.8-.1 1.2zm-17.4-2.8h13.7c-.4-3.6-3.1-6.1-6.9-6.1-3.6-.1-6.4 2.5-6.8 6.1z"/><path id="XMLID_9_" class="st0" d="m50.7 34.4 1.6-3.1c1.8 1.3 4.7 2.2 7.5 2.2 3.6 0 5.1-1.1 5.1-2.9 0-4.8-13.5-.6-13.5-9.2 0-3.8 3.4-6.4 8.9-6.4 2.8 0 5.9.7 7.8 1.9L66.4 20c-1.9-1.3-4.1-1.7-6.2-1.7-3.4 0-5 1.3-5 2.9 0 5 13.6.9 13.6 9.2 0 3.9-3.6 6.3-9.2 6.3-3.6.2-7.1-.9-8.9-2.3z"/><path id="XMLID_11_" class="st0" d="M71.9 15.3h3.9v21.4h-3.9V15.3z"/><path id="XMLID_25_" class="st0" d="m73.8 6.7 1.9 5.9h-3.9l2-5.9z"/><path id="XMLID_14_" class="st0" d="M101.4 15.3v18.5c0 7.6-3.8 11-11.1 11-3.9 0-7.9-1.1-10.2-3.2l1.9-3c2 1.7 5.1 2.8 8.2 2.8 5 0 7.3-2.3 7.3-7.2v-1.7c-1.9 2.2-4.6 3.3-7.7 3.3-6.2 0-10.9-4.2-10.9-10.4s4.7-10.3 10.9-10.3c3.2 0 6.1 1.2 7.9 3.5v-3.3h3.7zm-3.8 10.1c0-4.2-3.1-6.9-7.3-6.9-4.3 0-7.4 2.8-7.4 6.9s3.1 7 7.4 7c4.2 0 7.3-2.9 7.3-7z"/><path id="XMLID_17_" class="st0" d="M126.8 24.4v12.3h-3.9V24.8c0-4.2-2.1-6.3-5.8-6.3-4.1 0-6.8 2.5-6.8 7.1v11h-3.9V15.3h3.7v3.2c1.6-2.2 4.3-3.4 7.7-3.4 5.3 0 9 3 9 9.3z"/><path id="XMLID_19_" class="st1" d="M168.5 24.2v12.5h-7.7V25.4c0-3.1-1.3-4.5-3.3-4.5-2.2 0-3.8 1.5-3.8 4.9v10.9H146V25.4c0-3.1-1.3-4.5-3.3-4.5-2.3 0-3.9 1.5-3.9 4.9v10.9h-7.7V14.8h7.3v2.3c1.7-1.8 4-2.7 6.5-2.7 3 0 5.5 1.1 7.1 3.4 1.7-2.2 4.4-3.4 7.6-3.4 5.1 0 8.9 3 8.9 9.8z"/><path id="XMLID_21_" class="st1" d="M192.3 24.5v12.2h-7.1v-2.8c-1.1 2.1-3.3 3.2-6.5 3.2-5.2 0-8.2-2.9-8.2-6.7 0-4 2.9-6.5 9.7-6.5h4.4c-.1-2.2-1.6-3.5-4.6-3.5-2.1 0-4.4.7-5.9 1.9l-2.6-5.2c2.5-1.7 6.2-2.5 9.7-2.5 7-.2 11.1 3 11.1 9.9zm-7.7 5.2v-1.9h-3.3c-2.5 0-3.4.9-3.4 2.2 0 1.3 1 2.2 2.9 2.2 1.7 0 3.2-.8 3.8-2.5z"/><path id="XMLID_24_" class="st1" d="m189.1 43.7 1.9-5.5c.6.4 1.5.6 2.4.6 1.3 0 2.3-.9 2.3-2.9V14.8h7.7v21.3c0 5.3-3.3 8.8-8.9 8.8-2.1 0-4.1-.4-5.4-1.2z"/><path id="XMLID_27_" class="st1" d="M228.9 27.7H213c.6 2.2 2.5 3.5 5.4 3.5 2.1 0 3.6-.6 5-1.9l4 4.2c-2.1 2.3-5.2 3.6-9.3 3.6-7.8 0-12.8-4.8-12.8-11.3 0-6.6 5.1-11.3 12-11.3 6.5 0 11.7 4.1 11.7 11.3.1.5 0 1.3-.1 1.9zm-16-4.1h9c-.4-2.3-2.1-3.8-4.5-3.8-2.4.1-4.1 1.5-4.5 3.8z"/><path id="XMLID_30_" class="st1" d="m229.5 34.8 2.3-5.2c2 1.3 5 2 7.6 2s3.4-.6 3.4-1.5c0-2.9-12.9.4-12.9-8.4 0-4.1 3.8-7.3 10.7-7.3 3.1 0 6.5.6 8.6 1.9l-2.3 5.2c-2.2-1.2-4.4-1.6-6.3-1.6-2.6 0-3.5.7-3.5 1.5 0 3 12.9-.2 12.9 8.4 0 4-3.7 7.2-10.8 7.2-3.7 0-7.5-.9-9.7-2.2z"/><path id="XMLID_32_" class="st1" d="M267.2 35.8c-1.3.8-3.3 1.3-5.3 1.3-5.6 0-8.9-2.7-8.9-8.4v-7.3h-3.2v-5.7h3.2V9.9h7.7v5.7h5v5.7h-5v7.3c0 1.6.9 2.5 2.3 2.5.8 0 1.7-.2 2.3-.7l1.9 5.4z"/><path id="XMLID_34_" class="st1" d="m292.1 14.8-9.4 22.8c-2.3 5.7-5.5 7.3-9.9 7.3-2.3 0-4.9-.8-6.3-2l2.7-5.4c.9.8 2.2 1.3 3.4 1.3 1.5 0 2.3-.6 3-1.9l-9.4-22.2h7.9l5.4 13.4 5.4-13.4h7.2v.1z"/></g><g id="XMLID_1_"><path id="XMLID_37_" class="st1" d="m197.2 8 2.2 2.6c.1.1.3.1.3 0l2.1-2.5c0-.1.1-.1 0-.2L199.7.8c-.1-.2-.4-.2-.4 0l-2.2 7c.1.1.1.2.1.2z"/><path id="XMLID_38_" class="st1" d="m195.7 12.1 1.4-4c0-.1 0-.2-.1-.3l-7.4-4.6c-.2-.1-.4.1-.3.3l6 8.6c.1.2.4.2.4 0z"/><path id="XMLID_39_" class="st1" d="M209.5 3.3 202 8c-.1.1-.1.2-.1.3l1.3 3.9c.1.2.3.2.4.1l6.1-8.6c.3-.3 0-.6-.2-.4z"/></g></g></svg>