<svg id="Layer_1" data-name="Layer 1" xmlns="http://www.w3.org/2000/svg" viewBox="0 0 100 100"><defs><style>.cls-1{fill:#d92d2d;}</style></defs><title>icons</title><path class="cls-1" d="M13,32a5.23,5.23,0,0,1,5.23-5.23H87V23a2.61,2.61,0,0,0-2.61-2.61h-75A2.61,2.61,0,0,0,6.7,23V70.66a2.61,2.61,0,0,0,2.61,2.61H13Z"/><path class="cls-1" d="M93.3,32h-75V79.62H90.69A2.61,2.61,0,0,0,93.3,77ZM61,68.84a2.61,2.61,0,0,1,2.61-2.61H81.48a2.61,2.61,0,0,1,0,5.23H63.6A2.61,2.61,0,0,1,61,68.84ZM63.6,58H81.48a2.61,2.61,0,0,1,0,5.23H63.6a2.61,2.61,0,1,1,0-5.23ZM30.65,39.62H52.91a2.61,2.61,0,1,1,0,5.23H30.65a2.61,2.61,0,1,1,0-5.23Zm0,7.33H41.78a2.61,2.61,0,0,1,0,5.23H30.65a2.61,2.61,0,0,1,0-5.23ZM28,63.23a8.43,8.43,0,1,1,8.43,8.43A8.44,8.44,0,0,1,28,63.23Z"/><path class="cls-1" d="M36.47,66.43a3.2,3.2,0,1,0-3.2-3.2A3.2,3.2,0,0,0,36.47,66.43Z"/></svg>