<svg id="Layer_1" data-name="Layer 1" xmlns="http://www.w3.org/2000/svg" viewBox="0 0 100 100"><defs><style>.cls-1{fill:#d92d2d;}</style></defs><title>icons</title><path class="cls-1" d="M93.3,4h-11a2.69,2.69,0,0,0-2.7,2.7v2.7H57.59a8,8,0,0,0-15.18,0H20.35V6.7A2.69,2.69,0,0,0,17.66,4H6.7A2.69,2.69,0,0,0,4,6.7V17.48a2.69,2.69,0,0,0,2.7,2.7h11a2.69,2.69,0,0,0,2.7-2.7V14.75H31.42a35.16,35.16,0,0,0-16.26,27.6,8.06,8.06,0,1,0,5.38.12,29.58,29.58,0,0,1,22.3-26.7,8,8,0,0,0,14.31,0,29.58,29.58,0,0,1,22.3,26.7,8.11,8.11,0,1,0,5.38-.12A35.1,35.1,0,0,0,68.58,14.78H79.65v2.7a2.69,2.69,0,0,0,2.7,2.7h11a2.69,2.69,0,0,0,2.7-2.7V6.7A2.69,2.69,0,0,0,93.3,4Z"/><path class="cls-1" d="M68.34,92.66A11,11,0,0,0,58.09,85H41.91a11,11,0,0,0-10.25,7.62A2.66,2.66,0,0,0,34.28,96H65.72A2.66,2.66,0,0,0,68.34,92.66Z"/><path class="cls-1" d="M73.81,59.29,52.7,27.62V53.19a8.09,8.09,0,1,1-5.39,0V27.62L26.19,59.29a2.69,2.69,0,0,0,.34,3.4,34,34,0,0,1,9.33,18.16,16.05,16.05,0,0,1,6.05-1.2H58.09a16.05,16.05,0,0,1,6.05,1.2,34,34,0,0,1,9.33-18.16A2.69,2.69,0,0,0,73.81,59.29Z"/><path class="cls-1" d="M50,58.09a2.7,2.7,0,1,0,2.7,2.7A2.7,2.7,0,0,0,50,58.09Z"/></svg>